<svg width="1024" height="1024" viewBox="0 0 1024 1024" fill="none" xmlns="http://www.w3.org/2000/svg">
<rect width="1024" height="1024" fill="white"/>
<path d="M868 492.545L868 367.794C868 288.928 868 249.495 851.958 219.684C839.489 196.512 820.488 177.511 797.316 165.042C767.505 149 728.072 149 649.206 149" stroke="black" stroke-width="100" stroke-linecap="round"/>
<path d="M155 377.39C155 289.435 155 245.457 174.797 213.151C185.875 195.074 201.074 179.875 219.151 168.797C251.457 149 295.435 149 383.39 149L498.545 149" stroke="black" stroke-width="100" stroke-linecap="round"/>
<path d="M868 646.085C868 734.04 868 778.017 848.203 810.324C837.125 828.401 821.926 843.6 803.849 854.677C771.543 874.475 727.565 874.475 639.61 874.475H524.455" stroke="black" stroke-width="100" stroke-linecap="round"/>
<path d="M155 530.93L155 646.085C155 734.04 155 778.017 174.797 810.324C185.875 828.401 201.074 843.6 219.151 854.677C251.457 874.475 295.435 874.475 383.39 874.475" stroke="black" stroke-width="100" stroke-linecap="round"/>
<path d="M468.673 501.889C454.6 489.757 311.967 376.796 311.967 376.796C280.57 347.475 302.852 304 339.314 304H396.539C420.34 304 436.039 322.705 436.039 322.705C436.039 322.705 519.315 439.002 527.418 450.326C537.546 464.48 540.105 483.69 527.418 497.845C509.293 518.066 482.747 514.022 468.673 501.889Z" fill="black"/>
</svg>
