<svg width="1024" height="1024" viewBox="0 0 1024 1024" fill="none" xmlns="http://www.w3.org/2000/svg">
<path d="M754 107C844.575 107 918 180.425 918 271V754C918 844.575 844.575 918 754 918H271C180.425 918 107 844.575 107 754V271C107 180.425 180.425 107 271 107H754ZM339.313 304C302.852 304 280.57 347.475 311.968 376.796C312.128 376.923 454.609 489.764 468.674 501.89C482.747 514.022 509.294 518.067 527.418 497.846C540.105 483.691 537.546 464.48 527.418 450.325C519.315 439.001 436.039 322.704 436.039 322.704C435.97 322.622 420.288 304 396.539 304H339.313Z" fill="black"/>
</svg>
